PathFileType	4	(X/Y/Z)	s02c0303.trc
DataRate	CameraRate	NumFrames	NumMarkers	Units	OrigDataRate	OrigDataStartFrame	OrigNumFrames
200	200	5	50	mm	200	1500	2000
Frame#	Time	racr			lacr			c7			jug			rlel			rdr			llel			ldr			s2			lic			ric			lasi			rasi			rpsi			lpsi			rgt			lgt			rth1			rth2			rth3			rth4			rlfc			rmfc			rsh1			rsh2			rsh3			rsh4			rlmal			rmmal			rtoe			rmt5			rmt1			lth1			lth2			lth4			lth3			llfc			lmfc			lsh1			lsh2			lsh3			lsh4			llmal			lmmal			lcal			ltoe			lmt5			SBIKE			LBIKE			RBIKE			
		X1	Y1	Z1	X2	Y2	Z2	X3	Y3	Z3	X4	Y4	Z4	X5	Y5	Z5	X6	Y6	Z6	X7	Y7	Z7	X8	Y8	Z8	X9	Y9	Z9	X10	Y10	Z10	X11	Y11	Z11	X12	Y12	Z12	X13	Y13	Z13	X14	Y14	Z14	X15	Y15	Z15	X16	Y16	Z16	X17	Y17	Z17	X18	Y18	Z18	X19	Y19	Z19	X20	Y20	Z20	X21	Y21	Z21	X22	Y22	Z22	X23	Y23	Z23	X24	Y24	Z24	X25	Y25	Z25	X26	Y26	Z26	X27	Y27	Z27	X28	Y28	Z28	X29	Y29	Z29	X30	Y30	Z30	X31	Y31	Z31	X32	Y32	Z32	X33	Y33	Z33	X34	Y34	Z34	X35	Y35	Z35	X36	Y36	Z36	X37	Y37	Z37	X38	Y38	Z38	X39	Y39	Z39	X40	Y40	Z40	X41	Y41	Z41	X42	Y42	Z42	X43	Y43	Z43	X44	Y44	Z44	X45	Y45	Z45	X46	Y46	Z46	X47	Y47	Z47	X48	Y48	Z48	X49	Y49	Z49	X50	Y50	Z50	
1500	7.5000	769.911498	1234.047768	-194.076123	687.748064	1269.922633	-527.988003	728.655723	1286.086195	-368.355924	650.762566	1164.062643	-350.381182	673.132580	1021.219633	-43.783151	734.308332	842.125026	-124.042904	547.708110	1014.537640	-581.584673	708.253643	863.800734	-523.908526	205.297387	1205.063136	-233.505940	289.340479	1203.046836	-399.673848	348.906355	1156.393147	-120.270367	335.420799	1160.206527	-392.664649	385.272295	1120.868853	-155.948169	235.026883	1227.963334	-193.096206	223.416594	1245.025377	-275.174547	300.365838	1069.137092	-85.367144	244.441156	1121.352971	-433.838255	355.252075	987.490984	-92.327299	406.431141	915.475742	-97.703913	418.736274	831.077165	-83.618086	434.555977	925.804868	-120.588154	431.927784	694.590247	-124.094015	417.081531	683.428982	-232.770712	372.724986	599.933659	-106.311834	334.338771	520.350637	-124.174800	265.798385	468.442456	-118.219640	344.374840	516.537399	-162.208489	178.266429	377.583625	-124.904226	199.384517	395.514320	-205.126083	243.670476	160.612923	-197.290567	175.953736	239.367855	-127.594796	198.119472	232.575334	-237.355374	354.412938	1043.976103	-473.901241	430.543110	1004.312229	-487.245863	455.622845	1027.117027	-470.248643	475.239032	928.566899	-501.749977	550.022264	851.781532	-498.175227	571.960315	818.431824	-393.037697	516.394264	752.465782	-514.770561	493.222707	670.743990	-496.517938	429.345812	607.237170	-494.603088	514.138957	663.663279	-462.433631	358.016786	522.237592	-474.604626	380.665346	515.648533	-399.417373	282.208985	484.142000	-434.303639	557.610734	400.185239	-453.099439	446.023399	405.248411	-509.770077	-128.902158	869.292495	-314.494398	32.497638	82.424462	-515.168023	32.796361	82.460013	-115.093186	
1501	7.5050	769.755797	1235.225828	-195.746426	686.802999	1268.558268	-529.096399	727.817771	1285.868630	-370.115568	650.687342	1163.509762	-351.149376	673.893462	1021.795204	-44.772226	734.322895	842.104540	-124.227720	546.111563	1013.499790	-581.600675	707.831271	863.772247	-524.131604	205.177322	1205.457704	-233.891532	288.898529	1200.708120	-399.100214	348.404033	1158.077870	-120.236599	335.060055	1157.586339	-391.488065	385.091028	1122.571162	-155.478306	234.391823	1229.846526	-193.634666	222.718004	1245.770416	-275.814355	301.643841	1070.812327	-84.114007	242.317390	1118.711298	-432.886815	358.195562	989.379024	-94.265337	410.985765	918.577157	-99.387365	425.419728	834.640212	-84.623517	438.893430	929.594148	-121.926786	440.359984	698.020472	-124.523055	424.084793	686.728476	-232.996407	378.829468	603.687330	-106.453327	337.920710	525.381456	-124.475351	267.886731	475.265794	-118.429132	347.261036	521.175783	-162.904058	176.797392	386.942141	-124.548444	199.793271	403.486656	-205.540438	238.156887	168.828450	-197.191602	171.807212	248.947424	-127.531758	193.950302	241.536790	-237.385451	350.892161	1039.590137	-474.003744	426.222335	998.697036	-487.983401	451.892521	1021.312387	-471.728191	469.744674	922.116181	-501.851742	543.174517	844.033909	-498.393189	565.694706	810.988888	-394.718465	510.537507	743.370924	-514.989268	489.968197	661.062183	-496.185807	428.020095	595.739842	-493.442081	511.416664	654.879514	-462.292649	359.575940	510.261247	-473.062517	383.030176	503.747450	-397.747044	284.704941	470.992549	-432.860469	561.621154	391.621480	-453.257867	449.724573	395.536213	-509.909985	-128.841480	869.271656	-314.512600	32.504966	82.418831	-515.171828	32.483573	82.645088	-115.257121	
1502	7.5100	769.458086	1236.423358	-197.124277	686.200429	1267.003055	-530.106143	727.112320	1285.523750	-371.604846	650.731567	1162.846929	-351.673413	674.634439	1022.355816	-45.424387	734.372028	842.036002	-124.227194	545.126344	1012.366996	-581.913506	707.523480	863.695413	-524.325537	204.934370	1205.592271	-234.306095	290.139732	1197.870105	-399.325514	348.019129	1159.508153	-120.283487	334.753488	1154.729998	-390.410033	384.982453	1124.212698	-155.396313	233.783607	1231.449859	-194.317250	223.787311	1245.020906	-276.909375	303.203952	1072.245907	-82.990371	240.242254	1115.653080	-431.940482	361.357160	991.320608	-95.413755	415.418964	921.471007	-100.963880	431.874121	838.144562	-85.941799	443.099691	933.175741	-123.533429	448.688585	701.343487	-124.896097	430.821227	689.919207	-233.259426	384.866476	607.548797	-106.916330	341.341252	530.203952	-125.039667	270.130916	482.199320	-118.414953	350.560364	526.146502	-163.307217	176.019822	396.531682	-124.191782	199.933487	412.693978	-205.073341	233.340627	177.406441	-197.031771	168.498465	258.540349	-127.372438	190.467520	250.766024	-237.274642	347.262187	1034.950900	-473.983134	421.845891	992.786335	-488.627966	448.040069	1015.313402	-473.178685	464.070151	915.453869	-502.041685	535.861105	836.212618	-498.565872	560.459794	803.441187	-395.427648	504.655634	734.428213	-515.104578	486.610712	651.528848	-496.082028	426.494328	584.529565	-492.618235	508.592142	646.027954	-462.427280	360.861367	498.447731	-471.803399	385.035339	492.074224	-396.562810	287.283702	458.160639	-431.202659	565.031266	382.565809	-453.941450	452.660452	385.487962	-509.794006	-128.780683	869.282054	-314.457322	32.506286	82.432444	-515.170608	32.494308	82.638571	-115.241364	
1503	7.5150	769.031633	1237.355959	-198.191518	686.030665	1265.139131	-530.620182	726.519362	1285.054821	-372.782097	650.957946	1161.989488	-352.125823	675.584264	1022.846301	-45.956237	734.453985	841.920360	-124.119740	544.414384	1011.149334	-582.522451	707.243934	863.605017	-524.588376	204.465060	1205.625939	-234.729067	290.246645	1195.134659	-399.157117	347.699416	1160.697574	-120.422394	334.483062	1151.691099	-389.474712	384.940102	1125.540114	-155.588553	233.156935	1232.531789	-194.989855	223.612223	1245.115414	-278.016462	304.778173	1073.343512	-82.156501	238.120401	1112.451550	-431.009285	364.537477	993.135217	-96.347365	420.074481	924.565872	-102.049651	438.517300	841.571041	-87.431341	447.348323	936.873474	-125.223910	456.824056	704.471500	-125.410936	437.299028	693.027975	-233.484113	390.556595	611.395488	-107.500071	344.214619	534.841636	-126.256339	272.799437	489.255315	-118.396802	354.029790	531.028672	-163.626256	176.026595	406.083113	-123.815664	200.562076	421.869382	-204.864646	229.147573	185.977095	-196.972921	165.735304	268.422834	-127.292678	187.805526	260.137305	-237.232884	343.699749	1030.202382	-474.056033	417.425691	986.705213	-489.138842	444.152569	1009.115695	-474.500740	458.393578	908.603857	-502.001183	528.674144	827.630830	-498.220929	554.899468	795.951553	-396.876664	498.666636	725.689590	-515.229094	483.048128	642.289959	-496.239216	424.725875	573.721903	-492.001083	505.661726	637.196999	-462.902700	361.959621	486.804439	-470.968351	386.744201	480.746369	-395.854480	289.551500	445.597092	-429.542207	567.913509	372.932437	-454.644095	455.105669	374.859400	-509.672896	-128.749261	869.307693	-314.366805	32.518529	82.448724	-515.168898	32.494036	82.654458	-115.226955	
1504	7.5200	768.540260	1238.373443	-198.953147	686.037895	1263.173888	-530.999427	725.975211	1284.584248	-373.786301	651.247483	1161.135038	-352.390643	676.125256	1023.269819	-46.151841	734.562774	841.790684	-123.906846	543.891694	1009.898977	-583.353988	706.947603	863.505736	-524.945664	203.984223	1205.221696	-235.007431	290.225494	1192.078625	-399.142528	347.415833	1161.497319	-120.669779	334.230743	1148.523482	-388.726327	381.927946	1125.608622	-159.185998	232.461802	1233.171990	-195.702073	223.380625	1244.695481	-279.233056	306.631862	1074.186317	-81.477500	236.064282	1109.190590	-430.060833	367.699454	994.882696	-97.182294	424.575739	927.433620	-103.406087	445.031643	845.047820	-88.379979	451.107148	940.122938	-127.015049	464.606608	707.504824	-125.936203	443.518973	696.083540	-233.773743	396.640769	615.408095	-108.110997	348.496105	540.185484	-126.236850	275.760367	496.048668	-118.360870	356.800357	535.033599	-164.971130	176.720188	415.551402	-123.452258	201.855890	430.952693	-204.677437	225.343564	194.523566	-196.945638	163.607238	278.213650	-127.242193	185.729762	269.544108	-237.296212	340.180295	1025.359007	-474.129952	412.954576	980.641732	-490.204680	440.267236	1002.789465	-475.663127	452.723923	901.651720	-501.744748	521.805387	820.284719	-498.376106	549.839392	788.253010	-396.568608	492.566288	717.240122	-515.267182	479.361900	633.250448	-496.571939	422.719407	563.594086	-491.822157	502.596709	628.656735	-463.635513	362.992728	475.185434	-470.794185	388.062682	469.521364	-395.494222	291.287980	433.500346	-429.681603	570.339024	362.968350	-454.142261	457.591984	363.989674	-509.493551	-128.708199	869.375545	-314.181618	32.526851	82.490970	-515.168584	32.844706	82.445383	-115.065525	
